<?xml version="1.0" standalone="no"?>
<!DOCTYPE svg PUBLIC "-//W3C//DTD SVG 20010904//EN"
 "http://www.w3.org/TR/2001/REC-SVG-20010904/DTD/svg10.dtd">
<svg version="1.0" xmlns="http://www.w3.org/2000/svg"
 width="612.000000pt" height="408.000000pt" viewBox="0 0 612.000000 408.000000"
 preserveAspectRatio="xMidYMid meet">

<g transform="translate(0.000000,408.000000) scale(0.100000,-0.100000)"
fill="#000000" stroke="none">
<path d="M4553 3518 l-32 -33 30 -33 29 -32 40 20 c22 11 40 24 40 28 0 4 -17
25 -38 45 l-38 37 -31 -32z"/>
<path d="M4475 3440 l-29 -30 21 -21 20 -21 43 22 42 22 -28 29 c-15 16 -31
29 -34 29 -3 0 -19 -14 -35 -30z"/>
<path d="M4617 3418 l-38 -19 24 -42 c14 -23 30 -42 36 -41 6 1 21 2 34 3 46
3 49 14 21 64 -14 26 -29 49 -32 51 -4 2 -24 -5 -45 -16z"/>
<path d="M4405 3370 c-21 -22 -26 -33 -18 -41 8 -8 22 -5 52 12 39 21 40 24
24 41 -21 24 -24 23 -58 -12z"/>
<path d="M4527 3369 l-38 -20 18 -30 c17 -28 21 -29 58 -23 22 3 42 8 44 10 6
5 -30 84 -38 84 -3 -1 -23 -10 -44 -21z"/>
<path d="M4437 3317 c-33 -20 -36 -25 -23 -36 16 -14 96 -6 96 9 0 4 -8 17
-17 29 l-18 21 -38 -23z"/>
<path d="M4332 3300 c-38 -35 -31 -39 16 -10 18 11 30 25 27 30 -8 13 -5 14
-43 -20z"/>
<path d="M4692 3299 c-18 -3 -35 -9 -37 -11 -3 -2 1 -30 7 -62 l13 -58 39 7
c22 3 41 7 43 8 3 4 -23 117 -28 121 -2 1 -19 -1 -37 -5z"/>
<path d="M4352 3268 c-18 -11 -32 -21 -32 -23 0 -2 18 2 40 7 38 10 49 21 32
32 -4 2 -22 -5 -40 -16z"/>
<path d="M4262 3143 c4 -21 33 -25 33 -3 0 8 -8 16 -18 18 -14 3 -18 -1 -15
-15z"/>
<path d="M1876 2999 c-41 -17 -54 -18 -84 -8 -29 10 -37 9 -46 -4 -7 -8 -20
-16 -31 -18 -17 -4 -20 -13 -21 -57 -1 -45 2 -55 24 -72 35 -28 107 -26 184 5
97 39 122 34 133 -30 4 -22 13 -47 20 -55 7 -8 16 -32 19 -53 7 -39 29 -58 47
-40 12 12 15 28 24 136 6 77 5 91 -11 108 -9 10 -27 19 -38 19 -13 0 -28 12
-38 30 -18 32 -71 60 -110 59 -13 0 -45 -9 -72 -20z"/>
<path d="M2545 2989 c-27 -16 -65 -51 -65 -60 0 -4 13 6 29 22 16 16 37 29 47
29 13 0 10 -5 -11 -22 -34 -26 -58 -82 -49 -111 4 -15 3 -19 -4 -12 -6 6 -12
26 -15 45 -3 31 -4 30 -5 -10 -2 -48 14 -80 55 -113 13 -10 23 -25 23 -33 0
-10 14 -14 55 -14 44 0 55 3 55 16 0 9 13 28 29 43 86 80 40 218 -76 228 -26
2 -57 -2 -68 -8z m70 -9 c-3 -5 -10 -10 -16 -10 -5 0 -9 5 -9 10 0 6 7 10 16
10 8 0 12 -4 9 -10z"/>
<path d="M3052 2940 c-36 -22 -72 -74 -72 -106 0 -12 -15 -41 -34 -65 -44 -59
-49 -78 -31 -129 19 -54 19 -83 0 -120 -9 -17 -13 -40 -9 -54 7 -28 128 -136
152 -136 9 0 -1 11 -24 25 -64 38 -79 83 -79 235 1 139 12 183 54 224 l28 27
38 -25 c21 -14 44 -26 51 -26 26 0 54 -39 54 -74 0 -29 -3 -33 -19 -29 -10 3
-22 0 -25 -6 -5 -7 4 -11 22 -11 16 0 44 -10 63 -23 34 -23 34 -24 31 -93 -2
-62 0 -74 23 -105 14 -18 28 -42 31 -51 4 -10 13 -18 22 -18 29 0 82 44 100
83 14 31 21 36 40 32 84 -20 158 140 92 200 -21 19 -72 25 -100 12 -14 -6 -43
30 -79 101 -7 12 -35 33 -64 46 -29 13 -63 36 -77 51 -53 57 -128 72 -188 35z"/>
<path d="M4760 2930 c0 -5 5 -10 10 -10 6 0 10 5 10 10 0 6 -4 10 -10 10 -5 0
-10 -4 -10 -10z"/>
<path d="M4190 2895 c-19 -9 -41 -22 -50 -29 -8 -7 -32 -17 -53 -20 -20 -4
-53 -20 -71 -36 -30 -27 -41 -46 -60 -104 -6 -17 -8 -18 -24 -2 -39 34 -92 9
-92 -43 0 -39 31 -65 71 -59 l31 5 -6 -49 c-9 -63 -49 -154 -85 -193 -47 -51
-61 -78 -61 -121 0 -39 -22 -74 -47 -74 -5 0 -19 -10 -31 -23 -28 -30 -30 -95
-3 -128 l19 -23 6 31 c12 53 70 119 131 149 31 14 57 25 59 23 2 -2 0 -34 -5
-70 -20 -144 44 -249 149 -249 29 0 49 7 69 24 27 23 28 28 29 118 0 67 5 106
19 139 21 51 22 48 -37 121 -20 26 -21 31 -9 77 14 55 9 71 -36 125 -51 61
-48 103 11 174 23 26 35 32 67 32 22 0 39 5 39 11 0 7 -12 10 -30 7 -16 -3
-30 -4 -30 -2 0 1 7 15 15 30 8 16 15 37 15 47 0 14 10 17 69 17 60 0 74 -4
100 -25 45 -39 55 -81 48 -217 -6 -143 -25 -192 -88 -227 -39 -22 -40 -24 -37
-69 l3 -45 66 -22 c36 -13 76 -28 88 -35 27 -14 65 -97 55 -119 -4 -9 -6 -21
-5 -27 0 -6 -86 -110 -193 -230 l-194 -219 62 -3 c33 -2 84 -1 111 3 50 6 52
7 90 70 22 35 43 64 47 65 12 0 20 -40 13 -70 -6 -27 -4 -30 20 -30 36 0 90
24 106 47 39 56 154 172 162 164 9 -9 78 59 76 75 0 5 -32 35 -70 67 l-69 58
0 -71 c0 -38 -4 -70 -10 -70 -19 0 -30 40 -30 108 0 60 -3 71 -25 92 l-25 24
31 32 c29 30 30 33 16 60 -9 16 -38 51 -66 78 -58 57 -68 89 -47 141 22 52 20
70 -15 131 -29 51 -30 57 -24 136 6 74 4 88 -17 127 -36 69 -86 104 -156 108
-37 2 -69 -2 -92 -12z"/>
<path d="M1910 2780 c0 -5 16 -10 36 -10 21 0 33 4 29 10 -3 6 -19 10 -36 10
-16 0 -29 -4 -29 -10z"/>
<path d="M1760 2770 c0 -5 14 -10 31 -10 17 0 28 4 24 10 -3 6 -17 10 -31 10
-13 0 -24 -4 -24 -10z"/>
<path d="M1768 2734 c-10 -9 4 -44 17 -44 13 0 27 35 17 44 -3 3 -11 6 -17 6
-6 0 -14 -3 -17 -6z"/>
<path d="M1915 2720 c-4 -7 2 -9 17 -7 12 2 17 2 11 0 -18 -6 -16 -33 2 -33 8
0 15 4 15 9 0 5 3 16 6 25 5 12 0 16 -19 16 -14 0 -29 -5 -32 -10z"/>
<path d="M1831 2665 c-22 -59 -21 -75 7 -75 14 0 15 2 2 10 -12 8 -12 16 4 60
10 28 16 53 13 56 -3 3 -15 -20 -26 -51z"/>
<path d="M2990 2702 c0 -4 9 -8 20 -8 11 0 20 4 20 8 0 4 -9 8 -20 8 -11 0
-20 -4 -20 -8z"/>
<path d="M2590 2690 l55 -7 -47 -1 c-27 -1 -48 -6 -48 -10 0 -14 35 -42 53
-42 21 0 52 30 53 53 2 14 -7 17 -60 15 l-61 -1 55 -7z"/>
<path d="M4330 2690 c0 -5 12 -10 26 -10 14 0 23 4 19 10 -3 6 -15 10 -26 10
-10 0 -19 -4 -19 -10z"/>
<path d="M2989 2659 c-10 -6 -10 -9 -1 -9 6 0 11 -5 10 -11 -2 -6 3 -14 11
-17 10 -3 12 0 8 11 -3 9 -1 17 6 20 7 2 5 6 -4 9 -9 3 -22 2 -30 -3z"/>
<path d="M3153 2653 c9 -2 23 -2 30 0 6 3 -1 5 -18 5 -16 0 -22 -2 -12 -5z"/>
<path d="M926 2613 c15 -153 15 -151 36 -156 11 -3 30 -2 42 3 26 10 69 55 65
68 -4 10 -134 122 -142 122 -3 0 -3 -17 -1 -37z"/>
<path d="M4178 2643 c6 -2 18 -2 25 0 6 3 1 5 -13 5 -14 0 -19 -2 -12 -5z"/>
<path d="M4330 2646 c0 -2 11 -6 25 -8 13 -3 22 -1 19 3 -5 9 -44 13 -44 5z"/>
<path d="M3152 2629 c2 -6 8 -10 13 -10 5 0 11 4 13 10 2 6 -4 11 -13 11 -9 0
-15 -5 -13 -11z"/>
<path d="M4175 2621 c-7 -12 12 -24 25 -16 11 7 4 25 -10 25 -5 0 -11 -4 -15
-9z"/>
<path d="M4340 2615 c0 -9 5 -15 11 -13 6 2 11 8 11 13 0 5 -5 11 -11 13 -6 2
-11 -4 -11 -13z"/>
<path d="M3051 2589 c-6 -18 -9 -34 -7 -36 2 -2 9 10 15 28 6 18 9 34 7 36 -2
2 -9 -10 -15 -28z"/>
<path d="M5163 2581 c-10 -16 -9 -22 7 -36 18 -16 20 -16 36 0 13 13 15 21 7
34 -15 23 -36 24 -50 2z"/>
<path d="M1857 2558 c-14 -12 -14 -15 -1 -33 13 -18 15 -18 30 -3 9 9 14 24
11 32 -8 19 -18 20 -40 4z"/>
<path d="M4311 2524 c0 -11 3 -14 6 -6 3 7 2 16 -1 19 -3 4 -6 -2 -5 -13z"/>
<path d="M3090 2485 c-10 -13 -9 -15 9 -15 12 0 21 6 21 15 0 8 -4 15 -9 15
-5 0 -14 -7 -21 -15z"/>
<path d="M4230 2481 c0 -11 29 -35 35 -29 2 2 -4 12 -15 21 -11 9 -20 13 -20
8z"/>
<path d="M1915 2415 c-16 -8 -42 -14 -57 -15 -18 0 -28 -5 -28 -15 0 -8 7 -15
15 -15 24 0 79 25 94 43 16 20 15 20 -24 2z"/>
<path d="M2086 2323 c-3 -4 -6 -22 -6 -42 0 -77 -74 -140 -148 -126 -40 7 -89
47 -103 83 -5 12 -14 22 -21 21 -7 0 -53 -26 -103 -58 -100 -63 -119 -88 -155
-204 l-22 -69 -17 29 c-10 15 -56 103 -104 195 -73 139 -90 165 -106 161 -17
-4 -3 -38 125 -287 79 -156 144 -291 143 -302 0 -10 -66 112 -146 271 -80 160
-148 283 -151 275 -12 -37 -45 -60 -88 -60 l-43 0 215 -425 c119 -234 214
-431 211 -438 -2 -6 -102 183 -221 422 l-218 434 -21 -26 c-28 -33 -72 -50
-110 -41 l-29 6 47 -90 48 -91 34 14 c28 12 33 12 33 0 0 -8 -11 -22 -25 -31
-38 -25 -20 -35 25 -13 21 10 46 19 53 19 18 0 30 -27 16 -36 -6 -3 -3 -12 8
-20 17 -13 17 -15 -6 -32 -16 -13 -25 -32 -28 -66 -5 -37 -12 -51 -35 -68 -19
-13 -28 -27 -25 -38 11 -41 192 -293 230 -321 47 -34 54 -45 140 -215 l66
-129 -7 -97 -7 -98 28 -10 29 -10 -6 -72 c-3 -40 -9 -164 -12 -275 l-7 -203
44 -2 c24 -1 96 -2 161 -3 l116 -2 7 159 c4 88 11 156 15 151 4 -4 12 -42 19
-83 6 -41 19 -110 28 -153 l16 -77 169 0 169 0 -5 127 c-3 71 -8 197 -12 281
l-5 152 30 0 31 0 0 239 0 238 59 7 c74 8 141 49 165 100 14 30 20 35 32 25
20 -16 19 -10 -19 179 l-33 162 256 -1 c140 -1 309 -4 375 -8 l119 -6 13 -90
c7 -49 21 -135 30 -190 20 -113 19 -112 128 -114 93 -2 96 -10 26 -76 -112
-106 -105 -104 -241 -98 l-118 6 -4 -24 c-3 -22 -8 -24 -75 -27 -98 -5 -179
13 -199 44 -10 14 -26 24 -39 24 -21 0 -24 -8 -45 -118 -36 -193 -36 -274 -1
-557 17 -137 34 -256 36 -263 3 -9 80 -12 338 -12 l334 0 22 122 c12 68 24
135 27 150 3 17 13 28 28 32 13 3 56 43 96 88 41 46 79 89 85 96 9 10 15 -20
28 -125 10 -76 28 -187 40 -248 l22 -110 184 -3 184 -2 -7 272 c-4 150 -5 270
-2 268 2 -3 14 -122 26 -265 12 -143 24 -262 26 -264 2 -2 62 -6 134 -9 103
-3 131 -1 135 9 2 8 19 127 36 264 36 285 35 362 -5 558 -14 66 -26 121 -29
123 -2 2 -28 -6 -58 -20 -64 -28 -144 -46 -203 -46 -63 0 -137 12 -134 21 2 5
58 69 126 144 67 74 119 135 116 135 -16 0 -509 -152 -515 -158 -75 -92 -301
-346 -311 -350 -4 -2 -8 0 -8 5 0 4 -14 66 -30 137 -17 72 -30 131 -30 132 0
2 32 20 71 40 85 45 135 89 145 128 4 17 -8 155 -29 327 -49 410 -66 447 -227
490 -47 12 -89 26 -94 30 -5 5 -10 26 -10 46 l-1 38 -115 -2 c-153 -3 -160 -5
-160 -47 0 -31 -3 -34 -37 -41 -61 -11 -132 -46 -152 -74 -10 -14 -43 -84 -73
-154 -30 -71 -59 -129 -64 -130 -5 -1 -21 63 -35 143 l-26 145 -34 -1 c-19 -1
-60 -4 -93 -8 l-58 -8 4 -54 c6 -70 -3 -59 -37 44 -26 80 -28 83 -75 107 -92
46 -273 109 -284 98z m1370 -700 c19 -114 19 -131 6 -150 -22 -35 -47 -29 -60
16 -7 21 -12 51 -12 67 0 39 31 194 39 194 4 0 16 -57 27 -127z m-1556 -54
c16 -27 42 -53 68 -67 l42 -23 0 -91 0 -90 -87 6 c-79 7 -90 10 -111 34 -30
36 -54 91 -47 112 8 25 52 42 76 30 29 -16 35 12 14 59 -18 40 -13 85 8 78 6
-2 23 -23 37 -48z"/>
<path d="M4828 2280 c-26 -27 -30 -36 -25 -67 8 -47 33 -72 80 -80 31 -5 40
-1 67 25 40 41 41 83 1 123 -40 40 -82 39 -123 -1z"/>
<path d="M5570 2250 c0 -5 5 -10 10 -10 6 0 10 5 10 10 0 6 -4 10 -10 10 -5 0
-10 -4 -10 -10z"/>
<path d="M510 1895 c0 -39 44 -100 105 -145 17 -13 16 -10 -5 25 -64 108 -100
151 -100 120z"/>
<path d="M708 1788 c-18 -37 -26 -179 -9 -148 15 25 33 123 29 155 l-3 30 -17
-37z"/>
<path d="M640 1591 c0 -22 28 -66 62 -97 64 -59 71 -59 31 1 -44 65 -93 116
-93 96z"/>
<path d="M825 1429 c-19 -17 -38 -42 -41 -55 -3 -13 -10 -21 -15 -18 -5 3 -9
-1 -9 -10 0 -8 -3 -23 -6 -33 -7 -23 79 71 106 115 24 40 11 41 -35 1z"/>
<path d="M645 1297 c-4 -15 -5 -41 -1 -57 6 -35 47 -132 52 -127 5 5 -23 158
-34 187 l-10 25 -7 -28z"/>
<path d="M1108 1289 c-14 -19 -38 -63 -52 -99 l-26 -65 44 46 c28 29 49 62 56
88 16 60 8 70 -22 30z"/>
<path d="M940 1128 c0 -32 5 -81 12 -110 l11 -53 10 35 c13 51 4 147 -16 167
-16 16 -17 14 -17 -39z"/>
<path d="M761 1106 c-20 -32 -55 -155 -47 -163 8 -8 77 160 74 179 -3 21 -5
20 -27 -16z"/>
<path d="M974 892 c-43 -23 -132 -102 -116 -102 42 0 129 58 153 103 12 21 3
21 -37 -1z"/>
<path d="M650 891 c0 -27 41 -90 78 -119 25 -21 43 -45 51 -72 7 -23 15 -39
18 -36 12 11 2 130 -13 162 -19 39 -39 35 -30 -7 7 -37 -9 -37 -28 -1 -18 34
-76 90 -76 73z"/>
<path d="M5110 881 c0 -6 -6 -11 -13 -11 -8 0 -27 -11 -43 -25 -16 -14 -33
-25 -37 -25 -5 0 -5 -4 -2 -10 3 -5 -1 -20 -10 -34 -37 -56 -13 -212 38 -255
24 -19 21 -31 -8 -31 -21 0 -25 -5 -25 -31 0 -22 6 -32 19 -36 16 -4 20 -18
26 -89 l7 -84 119 0 c65 0 119 3 119 8 5 75 21 157 32 163 10 5 13 19 10 38
-3 24 -9 30 -33 33 l-29 3 28 30 c15 17 34 45 42 64 19 47 21 141 2 169 -8 12
-11 22 -8 22 4 0 -2 10 -14 22 -11 12 -20 25 -20 29 0 8 -80 49 -95 49 -5 0 5
-15 22 -32 41 -44 64 -108 65 -182 1 -64 -4 -90 -29 -144 -21 -47 -25 -35 -6
18 19 54 21 159 5 218 -12 41 -65 112 -83 112 -5 0 -6 -80 -2 -192 5 -144 3
-189 -5 -184 -8 5 -12 44 -12 114 0 59 -3 144 -7 190 l-6 83 -34 -32 c-38 -38
-73 -122 -73 -177 0 -35 19 -122 35 -164 4 -10 3 -18 -2 -18 -17 0 -47 120
-47 184 0 68 27 139 68 181 13 13 20 27 15 30 -5 4 -9 1 -9 -4z"/>
<path d="M859 763 c-9 -10 -22 -29 -29 -42 -14 -26 -40 -131 -33 -131 2 0 22
38 44 84 41 85 49 125 18 89z"/>
<path d="M680 508 c0 -16 28 -194 35 -226 5 -22 9 -23 83 -20 l77 3 26 128 26
127 -123 0 c-93 0 -124 -3 -124 -12z"/>
</g>
</svg>
