<?xml version="1.0" standalone="no"?>
<!DOCTYPE svg PUBLIC "-//W3C//DTD SVG 20010904//EN"
 "http://www.w3.org/TR/2001/REC-SVG-20010904/DTD/svg10.dtd">
<svg version="1.0" xmlns="http://www.w3.org/2000/svg"
 width="626.000000pt" height="417.000000pt" viewBox="0 0 626.000000 417.000000"
 preserveAspectRatio="xMidYMid meet">

<g transform="translate(0.000000,417.000000) scale(0.100000,-0.100000)"
fill="#000000" stroke="none">
<path d="M2429 3599 c-109 -16 -366 -119 -499 -201 l-75 -47 3 -58 c2 -61 52
-180 80 -190 24 -10 211 26 354 67 134 38 259 91 307 131 l23 19 -17 75 c-21
94 -80 215 -103 214 -9 -1 -42 -5 -73 -10z m17 -133 c45 -45 47 -95 5 -137
-64 -63 -161 -19 -161 74 0 38 5 49 31 71 43 37 83 34 125 -8z m-251 -101 c30
-29 32 -68 5 -95 -25 -25 -51 -25 -78 -2 -35 29 -38 67 -8 96 31 32 50 33 81
1z"/>
<path d="M3866 3084 c-27 -15 -53 -15 -103 1 -22 7 -23 4 -23 -39 0 -25 3 -46
8 -46 4 0 12 -10 17 -22 15 -33 60 -46 93 -27 15 8 29 24 31 34 2 11 8 23 14
27 14 9 16 88 2 88 -5 -1 -23 -8 -39 -16z"/>
<path d="M3824 2783 c-11 -35 -21 -48 -42 -51 -34 -5 -47 -28 -32 -56 7 -13
10 -29 6 -34 -3 -5 1 -15 8 -21 10 -8 16 -9 21 -1 11 18 20 12 58 -40 l38 -51
-21 -34 c-27 -43 -44 -44 -81 -4 -26 28 -33 30 -67 24 -20 -3 -55 -15 -76 -27
-74 -37 -241 -100 -361 -135 -91 -26 -146 -36 -229 -40 l-108 -6 4 -66 c4 -43
14 -85 32 -120 14 -30 26 -58 26 -62 0 -4 -13 -12 -30 -18 -38 -13 -38 -26 1
-62 38 -35 92 -38 157 -9 53 24 181 107 287 188 44 33 82 58 84 56 2 -2 -22
-46 -52 -99 l-56 -96 34 -15 c19 -8 39 -14 46 -14 11 0 6 -8 -69 -103 -25 -33
-48 -75 -55 -103 -9 -36 -19 -52 -40 -64 -27 -14 -29 -14 -47 8 -13 15 -21 19
-26 11 -5 -8 -10 -7 -16 5 -14 25 -1 37 28 26 14 -6 26 -10 28 -10 1 0 1 14
-2 30 -4 27 -8 30 -38 30 -20 0 -34 -5 -35 -12 -1 -7 -2 -19 -3 -27 -2 -21
-33 -22 -83 0 -24 10 -46 19 -49 19 -19 0 -111 -258 -101 -284 4 -9 29 -26 56
-39 l50 -22 -79 -120 c-44 -66 -80 -127 -80 -135 0 -9 13 -24 30 -33 36 -22
29 -27 153 129 l89 112 49 -21 50 -21 -7 -53 c-4 -34 -3 -53 4 -53 23 0 143
153 147 188 4 41 25 72 48 72 16 0 40 17 71 53 27 28 92 98 147 154 70 72 99
109 99 126 0 41 -22 49 -110 45 -44 -2 -80 -1 -80 2 0 3 61 83 134 178 137
175 162 220 154 273 -4 28 7 42 144 171 81 78 148 147 148 153 0 15 -38 65
-50 65 -4 0 -43 -29 -86 -65 -78 -65 -94 -74 -94 -55 0 17 -26 11 -45 -10 -10
-11 -22 -20 -26 -20 -13 0 -61 89 -54 100 3 6 22 17 41 25 42 17 52 40 29 65
-23 25 -64 26 -71 3z m-274 -1042 c0 -5 -4 -11 -8 -13 -5 -1 -26 -26 -46 -55
l-37 -52 -29 17 c-17 9 -30 22 -30 28 0 19 40 48 88 66 56 20 62 21 62 9z
m-302 -167 c21 -14 21 -16 7 -44 -20 -39 -25 -40 -63 -25 -34 15 -38 28 -22
70 11 28 31 28 78 -1z"/>
<path d="M1670 2115 c-15 -18 -41 -20 -57 -4 -19 19 -58 6 -61 -21 -2 -14 -10
-29 -18 -33 -21 -12 -17 -44 6 -50 18 -5 20 -14 20 -79 l0 -74 35 -17 c56 -27
69 -23 82 25 6 23 9 46 6 51 -3 5 -21 6 -41 2 -45 -8 -51 2 -41 67 9 56 23 72
54 62 73 -22 95 -15 95 33 0 44 -54 70 -80 38z"/>
<path d="M3326 1909 c-10 -17 -16 -33 -13 -36 3 -3 13 9 22 27 21 41 14 48 -9
9z"/>
<path d="M1343 1837 c-182 -134 -320 -388 -339 -624 -5 -63 -3 -77 16 -107 29
-48 55 -53 300 -61 291 -8 284 -7 304 -58 9 -24 16 -67 16 -97 0 -60 -17 -262
-25 -296 -4 -17 1 -23 19 -28 43 -11 51 1 75 102 35 149 29 139 61 100 l28
-33 10 40 c37 139 37 129 3 188 -25 44 -31 66 -31 114 0 68 -11 86 -60 102
-52 16 -216 39 -333 47 -56 3 -108 9 -115 14 -11 5 -3 20 30 61 24 30 72 88
105 130 92 113 86 110 141 57 60 -58 102 -86 160 -108 49 -19 45 -27 -18 -32
-31 -3 -35 -6 -38 -35 l-3 -33 325 0 c186 0 327 4 330 9 4 5 2 21 -4 35 -8 22
-16 26 -50 26 -22 0 -40 4 -40 8 0 5 38 91 86 192 54 117 82 186 75 193 -5 5
-13 7 -18 4 -4 -3 -46 -89 -93 -191 l-85 -186 -163 0 c-94 0 -168 4 -175 10
-7 5 -40 31 -74 56 -87 63 -120 106 -182 231 -58 118 -75 140 -138 184 l-41
29 -59 -43z"/>
<path d="M2834 1140 c-23 -9 -26 -23 -39 -170 -6 -76 6 -107 29 -75 23 32 96
171 96 184 0 7 -5 9 -10 6 -18 -11 -42 17 -35 42 6 25 -4 28 -41 13z"/>
<path d="M1856 764 l-16 -76 46 -55 c60 -70 83 -81 118 -58 l26 17 -25 42
c-14 22 -46 78 -73 123 -26 46 -50 83 -53 83 -3 0 -13 -34 -23 -76z"/>
<path d="M2130 603 c-14 -9 -48 -38 -76 -64 -49 -45 -50 -48 -37 -73 8 -14 17
-26 22 -26 4 0 40 25 79 55 69 54 70 56 61 88 -5 17 -9 33 -9 34 0 8 -18 1
-40 -14z"/>
<path d="M2230 604 c0 -8 5 -12 10 -9 6 3 10 10 10 16 0 5 -4 9 -10 9 -5 0
-10 -7 -10 -16z"/>
<path d="M1635 531 c-34 -5 -40 -10 -43 -33 l-3 -28 69 0 c64 0 70 2 76 23 13
50 4 54 -99 38z"/>
<path d="M1791 500 l-10 -30 40 0 c43 0 49 9 22 32 -34 29 -41 28 -52 -2z"/>
</g>
</svg>
